<svg width="400" height="400" viewBox="0 0 400 400" fill="none" xmlns="http://www.w3.org/2000/svg">
<path d="M204.397 273.629C206.951 272.945 209.379 274.345 210.297 276.491C217.423 295.425 237.953 305.642 257.426 300.425C276.813 294.888 289.484 275.775 286.189 255.814C285.825 253.178 287.313 251.071 289.867 250.386L306.147 246.023C308.701 245.339 311.534 246.972 312.217 249.523L312.303 249.841C318.719 284.001 297.865 317.267 264.516 326.885C230.997 335.867 196.389 317.804 185.185 284.928C184.182 282.463 185.733 279.313 188.287 278.629C188.287 278.629 188.287 278.629 188.607 278.544L204.397 273.629Z" fill="#E9F0E8"/>
<path d="M168.275 154.145C165.721 154.829 163.293 153.43 162.376 151.284C155.25 132.349 134.72 122.132 115.247 127.35C95.54 132.972 83.1886 152 86.484 171.961C86.848 174.597 85.36 176.704 82.806 177.388L66.5251 181.751C63.9712 182.435 61.1386 180.802 60.4552 178.251L60.3698 177.933C53.954 143.773 74.808 110.508 108.157 100.889C141.676 91.9072 176.283 109.97 187.488 142.847C188.491 145.311 186.939 148.461 184.385 149.145L184.066 149.231L168.275 154.145Z" fill="#4CFCA7"/>
<path d="M261.425 125.085L244.506 129.619C241.952 130.303 239.12 128.67 238.436 126.119L231.516 100.296C230.833 97.7453 232.47 94.9153 235.024 94.2306L252.262 89.6113C254.816 88.9273 256.453 86.0966 255.77 83.5466L251.413 67.2873C250.73 64.7365 248.216 63.0181 245.343 63.7879L202.651 75.5686C200.097 76.2533 198.46 79.0839 199.144 81.6339L204.782 102.676L211.701 128.499L218.621 154.323L218.877 155.279L238.098 227.012C238.781 229.563 241.294 231.281 243.848 230.597L259.81 226.319C262.364 225.635 264 222.805 263.317 220.255L247.342 160.637C246.83 158.724 247.766 157.107 249.681 156.593L268.516 151.547C271.07 150.862 272.706 148.032 272.023 145.481L267.666 129.222C266.812 126.034 263.979 124.401 261.425 125.085ZM282.967 123.755C282.369 121.523 283.452 119.183 285.516 117.947C292.984 113.895 297.085 104.937 294.864 96.6486C292.643 88.3593 284.932 82.5659 276.524 83.1106C274.204 83.3906 272.096 81.9053 271.498 79.6739L267.141 63.4144C266.457 60.8639 268.094 58.0335 270.562 57.0303C270.882 56.9448 270.882 56.9448 271.201 56.8593C293.592 53.5931 314.828 67.7219 320.403 89.8053C326.297 111.803 315.29 134.571 294.351 143.257C291.882 144.26 288.816 143.031 287.814 140.567C287.728 140.248 287.728 140.248 287.643 139.929L282.967 123.755Z" fill="#FBC1F5"/>
</svg>
